<mxfile host="Electron" agent="Mozilla/5.0 (Windows NT 10.0; Win64; x64) AppleWebKit/537.36 (KHTML, like Gecko) draw.io/26.2.2 Chrome/134.0.6998.178 Electron/35.1.2 Safari/537.36" version="26.2.2">
  <diagram name="Sayfa -1" id="_kRlSTGcgVi5rTK9JoXG">
    <mxGraphModel dx="1187" dy="669" grid="1" gridSize="10" guides="1" tooltips="1" connect="1" arrows="1" fold="1" page="1" pageScale="1" pageWidth="827" pageHeight="1169" math="0" shadow="0">
      <root>
        <mxCell id="0" />
        <mxCell id="1" parent="0" />
        <mxCell id="7iA-BACRxzBohfkJGhsl-2" value="Plan Belirleme" style="rounded=1;whiteSpace=wrap;html=1;arcSize=40;fontColor=#000000;fillColor=#ffffc0;strokeColor=#ff0000;" parent="1" vertex="1">
          <mxGeometry x="320" y="340" width="120" height="40" as="geometry" />
        </mxCell>
        <mxCell id="7iA-BACRxzBohfkJGhsl-4" value="" style="ellipse;html=1;shape=startState;fillColor=#000000;strokeColor=#ff0000;" parent="1" vertex="1">
          <mxGeometry x="30" y="345" width="30" height="30" as="geometry" />
        </mxCell>
        <mxCell id="7iA-BACRxzBohfkJGhsl-5" value="" style="edgeStyle=orthogonalEdgeStyle;html=1;verticalAlign=bottom;endArrow=open;endSize=8;strokeColor=#ff0000;rounded=0;entryX=0;entryY=0.5;entryDx=0;entryDy=0;" parent="1" source="7iA-BACRxzBohfkJGhsl-4" target="7iA-BACRxzBohfkJGhsl-2" edge="1">
          <mxGeometry relative="1" as="geometry">
            <mxPoint x="155" y="410" as="targetPoint" />
          </mxGeometry>
        </mxCell>
        <mxCell id="7iA-BACRxzBohfkJGhsl-6" value="Abonelik planlarını görüntüler" style="edgeLabel;html=1;align=center;verticalAlign=middle;resizable=0;points=[];" parent="7iA-BACRxzBohfkJGhsl-5" vertex="1" connectable="0">
          <mxGeometry x="-0.544" y="2" relative="1" as="geometry">
            <mxPoint x="61" y="2" as="offset" />
          </mxGeometry>
        </mxCell>
        <mxCell id="7iA-BACRxzBohfkJGhsl-7" value="Ödeme Yöntemi Belirleme" style="rounded=1;whiteSpace=wrap;html=1;arcSize=40;fontColor=#000000;fillColor=#ffffc0;strokeColor=#ff0000;" parent="1" vertex="1">
          <mxGeometry x="480" y="520" width="120" height="40" as="geometry" />
        </mxCell>
        <mxCell id="7iA-BACRxzBohfkJGhsl-9" value="Ödeme&amp;nbsp;" style="rounded=1;whiteSpace=wrap;html=1;arcSize=40;fontColor=#000000;fillColor=#ffffc0;strokeColor=#ff0000;" parent="1" vertex="1">
          <mxGeometry x="580" y="710" width="120" height="40" as="geometry" />
        </mxCell>
        <mxCell id="7iA-BACRxzBohfkJGhsl-40" style="edgeStyle=orthogonalEdgeStyle;rounded=0;orthogonalLoop=1;jettySize=auto;html=1;entryX=0.5;entryY=1;entryDx=0;entryDy=0;" parent="1" source="7iA-BACRxzBohfkJGhsl-11" target="7iA-BACRxzBohfkJGhsl-14" edge="1">
          <mxGeometry relative="1" as="geometry" />
        </mxCell>
        <mxCell id="7iA-BACRxzBohfkJGhsl-41" value="&lt;div&gt;Ödeme Reddedildi veya Hata Oluştu&lt;/div&gt;" style="edgeLabel;html=1;align=center;verticalAlign=middle;resizable=0;points=[];" parent="7iA-BACRxzBohfkJGhsl-40" vertex="1" connectable="0">
          <mxGeometry x="0.2715" relative="1" as="geometry">
            <mxPoint as="offset" />
          </mxGeometry>
        </mxCell>
        <mxCell id="7iA-BACRxzBohfkJGhsl-11" value="Ödeme Onayı&amp;nbsp;" style="rounded=1;whiteSpace=wrap;html=1;arcSize=40;fontColor=#000000;fillColor=#ffffc0;strokeColor=#ff0000;" parent="1" vertex="1">
          <mxGeometry x="827" y="685" width="120" height="40" as="geometry" />
        </mxCell>
        <mxCell id="7iA-BACRxzBohfkJGhsl-35" style="edgeStyle=orthogonalEdgeStyle;rounded=0;orthogonalLoop=1;jettySize=auto;html=1;" parent="1" source="7iA-BACRxzBohfkJGhsl-13" edge="1">
          <mxGeometry relative="1" as="geometry">
            <mxPoint x="1100" y="480" as="targetPoint" />
          </mxGeometry>
        </mxCell>
        <mxCell id="7iA-BACRxzBohfkJGhsl-13" value="Abonelik Aktif" style="rounded=1;whiteSpace=wrap;html=1;arcSize=40;fontColor=#000000;fillColor=#ffffc0;strokeColor=#ff0000;" parent="1" vertex="1">
          <mxGeometry x="1040" y="565" width="120" height="40" as="geometry" />
        </mxCell>
        <mxCell id="7iA-BACRxzBohfkJGhsl-14" value="Abonelik Başarısız" style="rounded=1;whiteSpace=wrap;html=1;arcSize=40;fontColor=#000000;fillColor=#ffffc0;strokeColor=#ff0000;" parent="1" vertex="1">
          <mxGeometry x="827" y="430" width="120" height="40" as="geometry" />
        </mxCell>
        <mxCell id="7iA-BACRxzBohfkJGhsl-18" value="" style="ellipse;html=1;shape=endState;fillColor=#000000;strokeColor=#ff0000;" parent="1" vertex="1">
          <mxGeometry x="1085" y="450" width="30" height="30" as="geometry" />
        </mxCell>
        <mxCell id="7iA-BACRxzBohfkJGhsl-23" value="" style="curved=1;endArrow=classic;html=1;rounded=0;exitX=0.5;exitY=1;exitDx=0;exitDy=0;entryX=0;entryY=0.25;entryDx=0;entryDy=0;" parent="1" source="7iA-BACRxzBohfkJGhsl-2" target="7iA-BACRxzBohfkJGhsl-7" edge="1">
          <mxGeometry width="50" height="50" relative="1" as="geometry">
            <mxPoint x="455" y="430" as="sourcePoint" />
            <mxPoint x="505" y="380" as="targetPoint" />
            <Array as="points">
              <mxPoint x="370" y="500" />
            </Array>
          </mxGeometry>
        </mxCell>
        <mxCell id="7iA-BACRxzBohfkJGhsl-24" value="abonelik planlarından birini seçer." style="edgeLabel;html=1;align=center;verticalAlign=middle;resizable=0;points=[];" parent="7iA-BACRxzBohfkJGhsl-23" vertex="1" connectable="0">
          <mxGeometry x="-0.3053" y="19" relative="1" as="geometry">
            <mxPoint as="offset" />
          </mxGeometry>
        </mxCell>
        <mxCell id="7iA-BACRxzBohfkJGhsl-25" value="" style="curved=1;endArrow=classic;html=1;rounded=0;exitX=0.5;exitY=1;exitDx=0;exitDy=0;entryX=0;entryY=0.25;entryDx=0;entryDy=0;" parent="1" edge="1">
          <mxGeometry width="50" height="50" relative="1" as="geometry">
            <mxPoint x="540" y="560" as="sourcePoint" />
            <mxPoint x="640" y="710" as="targetPoint" />
            <Array as="points">
              <mxPoint x="650" y="600" />
            </Array>
          </mxGeometry>
        </mxCell>
        <mxCell id="7iA-BACRxzBohfkJGhsl-27" value="tercih ettiği ödeme yöntemini seçer." style="edgeLabel;html=1;align=center;verticalAlign=middle;resizable=0;points=[];" parent="7iA-BACRxzBohfkJGhsl-25" vertex="1" connectable="0">
          <mxGeometry x="-0.1507" y="-25" relative="1" as="geometry">
            <mxPoint as="offset" />
          </mxGeometry>
        </mxCell>
        <mxCell id="7iA-BACRxzBohfkJGhsl-28" value="" style="curved=1;endArrow=classic;html=1;rounded=0;exitX=0.5;exitY=1;exitDx=0;exitDy=0;entryX=0.5;entryY=1;entryDx=0;entryDy=0;" parent="1" source="7iA-BACRxzBohfkJGhsl-9" target="7iA-BACRxzBohfkJGhsl-11" edge="1">
          <mxGeometry width="50" height="50" relative="1" as="geometry">
            <mxPoint x="700" y="790" as="sourcePoint" />
            <mxPoint x="800" y="940" as="targetPoint" />
            <Array as="points">
              <mxPoint x="810" y="830" />
            </Array>
          </mxGeometry>
        </mxCell>
        <mxCell id="7iA-BACRxzBohfkJGhsl-30" value="&lt;span style=&quot;color: rgba(0, 0, 0, 0); font-family: monospace; font-size: 0px; text-align: start; background-color: rgb(236, 236, 236);&quot;&gt;%3CmxGraphModel%3E%3Croot%3E%3CmxCell%20id%3D%220%22%2F%3E%3CmxCell%20id%3D%221%22%20parent%3D%220%22%2F%3E%3CmxCell%20id%3D%222%22%20value%3D%22%22%20style%3D%22curved%3D1%3BendArrow%3Dclassic%3Bhtml%3D1%3Brounded%3D0%3BexitX%3D0.5%3BexitY%3D1%3BexitDx%3D0%3BexitDy%3D0%3BentryX%3D0%3BentryY%3D0.25%3BentryDx%3D0%3BentryDy%3D0%3B%22%20edge%3D%221%22%20parent%3D%221%22%3E%3CmxGeometry%20width%3D%2250%22%20height%3D%2250%22%20relative%3D%221%22%20as%3D%22geometry%22%3E%3CmxPoint%20x%3D%22540%22%20y%3D%22560%22%20as%3D%22sourcePoint%22%2F%3E%3CmxPoint%20x%3D%22640%22%20y%3D%22710%22%20as%3D%22targetPoint%22%2F%3E%3CArray%20as%3D%22points%22%3E%3CmxPoint%20x%3D%22650%22%20y%3D%22600%22%2F%3E%3C%2FArray%3E%3C%2FmxGeometry%3E%3C%2FmxCell%3E%3CmxCell%20id%3D%223%22%20value%3D%22tercih%20etti%C4%9Fi%20%C3%B6deme%20y%C3%B6ntemini%20se%C3%A7er.%22%20style%3D%22edgeLabel%3Bhtml%3D1%3Balign%3Dcenter%3BverticalAlign%3Dmiddle%3Bresizable%3D0%3Bpoints%3D%5B%5D%3B%22%20vertex%3D%221%22%20connectable%3D%220%22%20parent%3D%222%22%3E%3CmxGeometry%20x%3D%22-0.1507%22%20y%3D%22-25%22%20relative%3D%221%22%20as%3D%22geometry%22%3E%3CmxPoint%20as%3D%22offset%22%2F%3E%3C%2FmxGeometry%3E%3C%2FmxCell%3E%3C%2Froot%3E%3C%2FmxGraphModel%3E&lt;/span&gt;" style="edgeLabel;html=1;align=center;verticalAlign=middle;resizable=0;points=[];" parent="7iA-BACRxzBohfkJGhsl-28" vertex="1" connectable="0">
          <mxGeometry x="-0.1559" y="34" relative="1" as="geometry">
            <mxPoint as="offset" />
          </mxGeometry>
        </mxCell>
        <mxCell id="7iA-BACRxzBohfkJGhsl-31" value="ödeme bilgileri (kart no, CVV, tarih vb.) alınır." style="edgeLabel;html=1;align=center;verticalAlign=middle;resizable=0;points=[];" parent="7iA-BACRxzBohfkJGhsl-28" vertex="1" connectable="0">
          <mxGeometry x="-0.1695" y="35" relative="1" as="geometry">
            <mxPoint as="offset" />
          </mxGeometry>
        </mxCell>
        <mxCell id="7iA-BACRxzBohfkJGhsl-32" value="" style="curved=1;endArrow=classic;html=1;rounded=0;exitX=1;exitY=0.5;exitDx=0;exitDy=0;entryX=0.5;entryY=1;entryDx=0;entryDy=0;" parent="1" source="7iA-BACRxzBohfkJGhsl-11" target="7iA-BACRxzBohfkJGhsl-13" edge="1">
          <mxGeometry width="50" height="50" relative="1" as="geometry">
            <mxPoint x="1000" y="600" as="sourcePoint" />
            <mxPoint x="1100" y="750" as="targetPoint" />
            <Array as="points">
              <mxPoint x="1060" y="720" />
            </Array>
          </mxGeometry>
        </mxCell>
        <mxCell id="7iA-BACRxzBohfkJGhsl-34" value=" girilen ödeme bilgileriyle ödeme işlemini onaylanır." style="edgeLabel;html=1;align=center;verticalAlign=middle;resizable=0;points=[];" parent="7iA-BACRxzBohfkJGhsl-32" vertex="1" connectable="0">
          <mxGeometry x="-0.2608" y="21" relative="1" as="geometry">
            <mxPoint x="34" y="-36" as="offset" />
          </mxGeometry>
        </mxCell>
        <mxCell id="7iA-BACRxzBohfkJGhsl-42" value="" style="curved=1;endArrow=classic;html=1;rounded=0;exitX=0;exitY=0.5;exitDx=0;exitDy=0;entryX=0.5;entryY=0;entryDx=0;entryDy=0;" parent="1" source="7iA-BACRxzBohfkJGhsl-14" target="7iA-BACRxzBohfkJGhsl-7" edge="1">
          <mxGeometry width="50" height="50" relative="1" as="geometry">
            <mxPoint x="780" y="240" as="sourcePoint" />
            <mxPoint x="880" y="390" as="targetPoint" />
            <Array as="points">
              <mxPoint x="640" y="360" />
            </Array>
          </mxGeometry>
        </mxCell>
        <mxCell id="7iA-BACRxzBohfkJGhsl-44" value="&lt;div&gt;farklı bir ödeme yöntemi seçmek ister veya ödeme bilgilerini düzeltir&lt;/div&gt;" style="edgeLabel;html=1;align=center;verticalAlign=middle;resizable=0;points=[];" parent="7iA-BACRxzBohfkJGhsl-42" vertex="1" connectable="0">
          <mxGeometry x="0.389" y="25" relative="1" as="geometry">
            <mxPoint x="34" y="-10" as="offset" />
          </mxGeometry>
        </mxCell>
        <mxCell id="mLnC59BZjzIlLN4wJ-mp-1" value="&lt;b&gt;&lt;font style=&quot;font-size: 18px;&quot;&gt;Aboneik Planı Satın Alma State Machine Diagram&lt;/font&gt;&lt;/b&gt;" style="text;html=1;align=center;verticalAlign=middle;whiteSpace=wrap;rounded=0;" vertex="1" parent="1">
          <mxGeometry x="560" y="230" width="310" height="30" as="geometry" />
        </mxCell>
      </root>
    </mxGraphModel>
  </diagram>
</mxfile>
